# xmcd
#
# Track frame offsets: 
#        150
#        17520
#        44207
#        67328
#        81091
#        96900
#        112059
#        134805
#        157043
#        181289
#        201605
#
# Disc length: 3081 seconds
#
# Revision: 0
# Processed by: cddbd v1.5.2PL0 Copyright (c) Steve Scherf et al.
# Submitted via: ExactAudioCopy v1.0b6
#
DISCID=ae0c070b
DTITLE=Donna Lewis - Brand New Day (2015)
DYEAR=2015
DGENRE=Jazz Vocal
TTITLE0=Sleep
TTITLE1=Bring Me the Disco King
TTITLE2=Crazy
TTITLE3=Waters of March
TTITLE4=Brand New Day
TTITLE5=Everybodys Talkin' at Me
TTITLE6=Helpless
TTITLE7=Amie
TTITLE8=I Love You Always Forever
TTITLE9=Walk on By
TTITLE10=My Mom
EXTD=
EXTT0=
EXTT1=
EXTT2=
EXTT3=
EXTT4=
EXTT5=
EXTT6=
EXTT7=
EXTT8=
EXTT9=
EXTT10=
PLAYORDER=
